# xmcd
#
# Track frame offsets:
#	150
#	19867
#	37390
#	51812
#	68185
#	89942
#	106347
#	127855
#	141532
#	157372
#	174887
#	189247
#	203270
#	219005
#	236557
#	253682
#
# Disc length: 3589 seconds
#
# Revision: 0
# Processed by: cddbd v1.5.2PL0 Copyright (c) Steve Scherf et al.
# Submitted via: dBpowerAMP V4.0
#
DISCID=e50e0310
DTITLE=Kenny Rogers - The Kenny Rogers Collection
DYEAR=2010
DGENRE=Easy Listening
TTITLE0=She Believes In Me
TTITLE1=Lady
TTITLE2=You Are So Beautiful
TTITLE3=Evergreen (Love Theme From A Star Is Born)
TTITLE4=Have I Told You Lately
TTITLE5=The Wind Beneath My Wings
TTITLE6=Always And Forever
TTITLE7=I Will Always Love You
TTITLE8=Unchained Melody
TTITLE9=I Swear
TTITLE10=You Light Up My Life
TTITLE11=Love Me Tender
TTITLE12=When I Fall In Love
TTITLE13=Endless Love
TTITLE14=You Decorated My Life
TTITLE15=Through The Years
EXTD=Reader's Digest The Worlds Most Beautiful Medodies
EXTT0=
EXTT1=
EXTT2=
EXTT3=
EXTT4=
EXTT5=
EXTT6=
EXTT7=
EXTT8=
EXTT9=
EXTT10=
EXTT11=
EXTT12=
EXTT13=
EXTT14=
EXTT15=
PLAYORDER=
